<?xml version="1.0" standalone="no"?>
<!DOCTYPE svg PUBLIC "-//W3C//DTD SVG 20010904//EN"
 "http://www.w3.org/TR/2001/REC-SVG-20010904/DTD/svg10.dtd">
<svg version="1.0" xmlns="http://www.w3.org/2000/svg"
 width="1920.000000pt" height="1080.000000pt" viewBox="0 0 1920.000000 1080.000000"
 preserveAspectRatio="xMidYMid meet">

<g transform="translate(0.000000,1080.000000) scale(0.100000,-0.100000)"
fill="#000000" stroke="none">
<path d="M1240 9610 c0 -400 3 -610 10 -610 7 0 10 210 10 610 0 400 -3 610
-10 610 -7 0 -10 -210 -10 -610z"/>
<path d="M3770 9610 c0 -400 3 -610 10 -610 7 0 10 210 10 610 0 400 -3 610
-10 610 -7 0 -10 -210 -10 -610z"/>
<path d="M6300 9610 c0 -400 3 -610 10 -610 7 0 10 210 10 610 0 400 -3 610
-10 610 -7 0 -10 -210 -10 -610z"/>
<path d="M8830 9610 c0 -400 3 -610 10 -610 7 0 10 210 10 610 0 400 -3 610
-10 610 -7 0 -10 -210 -10 -610z"/>
<path d="M11350 9609 c0 -484 3 -610 13 -607 9 4 13 137 15 611 2 535 0 607
-13 607 -13 0 -15 -73 -15 -611z"/>
<path d="M13880 9610 c0 -400 3 -610 10 -610 7 0 10 210 10 610 0 400 -3 610
-10 610 -7 0 -10 -210 -10 -610z"/>
<path d="M16410 9610 c0 -400 3 -610 10 -610 7 0 10 210 10 610 0 400 -3 610
-10 610 -7 0 -10 -210 -10 -610z"/>
<path d="M18940 9610 c0 -400 3 -610 10 -610 7 0 10 210 10 610 0 400 -3 610
-10 610 -7 0 -10 -210 -10 -610z"/>
<path d="M741 9863 c-18 -65 -71 -252 -117 -417 -47 -164 -83 -301 -80 -304 9
-8 8 -10 70 218 32 118 62 225 67 237 8 21 15 23 84 23 69 0 76 -2 85 -22 5
-13 34 -109 65 -214 72 -252 68 -244 103 -244 l29 0 -114 368 c-62 202 -120
391 -129 420 -8 28 -19 52 -23 52 -4 0 -22 -53 -40 -117z m63 -100 c20 -68 36
-125 36 -128 0 -3 -34 -5 -76 -5 -67 0 -75 2 -70 18 3 9 12 42 20 72 23 91 48
172 51 168 1 -2 19 -58 39 -125z"/>
<path d="M3285 9920 c-10 -33 -15 -63 -12 -67 4 -3 7 1 7 10 0 45 21 6 50 -95
18 -62 35 -119 38 -125 3 -10 -15 -13 -72 -13 -42 0 -76 4 -76 8 0 4 11 47 26
96 14 48 23 93 21 99 -2 6 -36 -106 -76 -249 -40 -142 -84 -296 -97 -342 -14
-46 -23 -89 -21 -95 6 -17 9 -10 73 228 31 116 61 218 66 228 8 15 20 17 86
15 l77 -3 69 -237 70 -238 33 0 c30 0 32 2 23 23 -10 23 -225 715 -242 780 -6
20 -14 37 -18 37 -4 0 -15 -27 -25 -60z"/>
<path d="M5812 9913 c-50 -167 -212 -750 -212 -763 1 -34 19 22 75 230 32 118
62 221 68 228 7 9 33 12 85 10 l75 -3 52 -180 c29 -99 60 -206 69 -237 15 -54
19 -58 46 -58 17 0 30 2 30 5 0 5 -99 328 -212 690 -22 72 -44 134 -48 138 -4
5 -17 -22 -28 -60z m49 -155 l34 -123 -69 -3 c-37 -2 -71 -1 -74 2 -3 3 4 38
15 78 11 40 26 94 33 121 7 26 16 47 20 47 4 0 23 -55 41 -122z"/>
<path d="M8356 9969 c-20 -55 -233 -825 -230 -828 9 -9 16 11 49 135 19 71 48
176 63 234 l29 105 81 3 81 3 16 -58 c9 -32 20 -69 25 -83 5 -14 16 -52 25
-85 9 -33 30 -104 46 -157 29 -96 30 -98 61 -98 24 0 29 3 25 18 -3 9 -19 60
-35 112 -17 52 -72 230 -122 395 -51 165 -96 304 -101 309 -5 6 -10 4 -13 -5z
m33 -210 c17 -59 31 -112 31 -118 0 -7 -26 -11 -70 -11 -49 0 -70 4 -70 13 0
30 63 238 70 230 5 -4 22 -56 39 -114z"/>
<path d="M10887 9974 c-3 -5 -28 -92 -57 -194 -29 -102 -81 -286 -116 -409
-54 -192 -67 -250 -51 -230 2 2 33 110 68 239 l64 235 74 3 c41 2 78 -1 84 -7
5 -5 39 -112 76 -238 l68 -228 33 -3 c28 -3 32 -1 26 14 -8 20 -109 346 -193
619 -59 190 -67 213 -76 199z m28 -205 c19 -63 35 -120 35 -126 0 -9 -21 -13
-74 -13 l-74 0 8 33 c19 81 63 227 67 223 2 -2 20 -55 38 -117z"/>
<path d="M13356 9773 c-32 -115 -85 -302 -118 -416 -33 -115 -57 -211 -54
-214 3 -4 7 -4 9 -2 2 2 29 100 61 218 32 118 62 225 67 238 8 21 14 23 84 23
69 0 76 -2 85 -22 5 -13 34 -109 65 -214 72 -252 68 -244 103 -244 l29 0 -114
368 c-62 202 -120 391 -129 420 -8 28 -19 52 -23 52 -4 0 -33 -93 -65 -207z
m84 2 c17 -60 33 -118 36 -127 5 -16 -3 -18 -71 -18 -68 0 -76 2 -71 18 3 9
17 60 31 112 35 126 36 132 40 128 2 -2 17 -52 35 -113z"/>
<path d="M15926 9923 c-17 -60 -88 -312 -171 -606 -26 -93 -45 -171 -41 -174
7 -8 6 -12 72 232 31 116 61 218 66 228 8 15 20 17 86 15 l76 -3 70 -237 70
-238 31 0 32 0 -27 83 c-14 45 -73 234 -130 420 -57 185 -107 337 -111 337 -3
0 -13 -26 -23 -57z m44 -155 c18 -62 35 -119 38 -125 3 -10 -16 -13 -73 -13
-69 0 -77 2 -72 18 2 9 17 65 33 125 16 59 32 107 35 107 4 0 21 -51 39 -112z"/>
<path d="M18452 9913 c-50 -167 -212 -750 -212 -763 1 -34 19 22 75 230 32
118 62 221 68 228 7 9 33 12 85 10 l75 -3 52 -180 c29 -99 60 -206 69 -237 15
-54 19 -58 46 -58 17 0 30 2 30 6 0 3 -30 100 -66 217 -36 117 -83 268 -104
337 -69 226 -82 265 -90 273 -4 5 -17 -22 -28 -60z m49 -155 l34 -123 -69 -3
c-37 -2 -71 -1 -74 2 -3 3 4 38 15 78 11 40 26 94 33 121 7 26 16 47 20 47 4
0 23 -55 41 -122z"/>
<path d="M1500 9551 l0 -411 133 0 c163 0 209 13 266 75 48 52 65 108 58 189
-7 78 -43 130 -117 167 -30 16 -64 31 -75 34 -16 5 -13 9 20 24 139 62 155
244 28 307 -30 15 -66 20 -175 22 l-138 4 0 -411z m270 381 c100 -50 99 -223
-1 -289 -32 -21 -55 -26 -124 -30 l-85 -5 0 171 0 171 88 0 c63 0 97 -5 122
-18z m-2 -348 c82 -34 131 -111 132 -204 0 -77 -16 -125 -55 -169 -43 -47 -88
-61 -199 -61 l-86 0 0 225 0 225 85 0 c55 0 99 -6 123 -16z"/>
<path d="M4030 9550 l0 -410 138 0 c123 0 142 3 187 24 62 29 100 68 120 125
36 103 3 214 -82 270 -26 17 -50 31 -54 31 -4 0 -20 5 -36 11 l-28 11 39 19
c125 61 155 191 64 276 -45 43 -89 53 -223 53 l-125 0 0 -410z m269 382 c47
-25 71 -74 71 -142 -1 -115 -65 -172 -202 -178 l-78 -4 0 171 0 171 88 0 c65
0 96 -5 121 -18z m-16 -343 c52 -14 122 -84 136 -134 33 -122 -10 -244 -103
-286 -30 -14 -65 -19 -133 -19 l-93 0 0 225 0 225 78 0 c42 0 94 -5 115 -11z"/>
<path d="M6560 9550 l0 -410 138 0 c147 0 197 13 250 63 57 53 84 156 62 235
-15 59 -79 126 -138 148 -66 24 -67 28 -22 48 104 46 141 176 73 257 -47 56
-91 69 -235 69 l-128 0 0 -410z m268 380 c46 -28 72 -76 72 -133 0 -123 -85
-192 -228 -185 l-57 3 -3 155 c-1 85 0 160 2 167 4 9 31 13 93 13 70 0 95 -4
121 -20z m2 -351 c60 -27 79 -45 106 -104 53 -113 14 -252 -86 -302 -36 -19
-61 -23 -137 -23 l-93 0 0 225 0 225 83 0 c61 0 94 -6 127 -21z"/>
<path d="M9088 9549 l2 -411 148 4 c135 3 151 5 192 28 87 49 131 156 109 262
-9 40 -22 62 -58 98 -27 27 -64 52 -87 59 -21 7 -45 15 -53 17 -8 2 10 16 40
32 60 31 86 62 99 118 18 76 -21 152 -94 185 -33 15 -66 19 -171 19 l-130 0 3
-411z m273 378 c113 -75 78 -269 -56 -306 -17 -5 -61 -8 -96 -7 l-64 1 -3 168
-2 167 93 0 c81 0 99 -3 128 -23z m10 -355 c39 -20 62 -41 83 -75 26 -42 29
-57 29 -122 -1 -94 -28 -155 -86 -193 -38 -25 -48 -27 -146 -27 l-106 0 -3
223 -2 222 89 0 c78 0 95 -3 142 -28z"/>
<path d="M11610 9549 l0 -410 148 3 c135 3 152 5 197 29 69 35 108 99 113 184
8 130 -48 204 -192 249 -15 5 -8 12 32 32 70 35 95 73 100 149 5 74 -20 117
-88 151 -40 21 -59 23 -177 24 l-133 0 0 -411z m281 378 c70 -47 87 -162 36
-238 -36 -53 -79 -72 -174 -77 l-83 -5 0 172 0 171 94 0 c80 0 98 -3 127 -23z
m-6 -346 c47 -22 99 -74 114 -114 6 -16 11 -59 11 -96 0 -85 -34 -159 -88
-193 -31 -19 -54 -23 -144 -27 l-108 -3 0 226 0 226 88 0 c63 0 98 -5 127 -19z"/>
<path d="M14140 9550 l0 -410 133 0 c163 0 209 13 266 75 48 52 65 108 58 189
-7 78 -43 130 -117 167 -30 16 -64 31 -75 34 -16 5 -13 9 20 24 46 20 102 79
111 117 10 41 -2 110 -25 142 -39 56 -94 72 -241 72 l-130 0 0 -410z m270 381
c48 -25 73 -71 73 -135 0 -67 -26 -121 -73 -152 -30 -20 -55 -26 -124 -31
l-86 -6 0 172 0 171 88 0 c66 0 96 -5 122 -19z m-17 -342 c85 -23 146 -111
147 -209 0 -77 -16 -125 -55 -169 -43 -47 -88 -61 -199 -61 l-86 0 0 225 0
225 78 0 c42 0 94 -5 115 -11z"/>
<path d="M16670 9550 l0 -410 138 0 c123 0 142 3 187 24 62 29 100 68 120 125
36 103 3 214 -82 270 -26 17 -50 31 -54 31 -4 0 -20 5 -36 11 l-28 11 39 19
c125 61 155 191 64 276 -45 43 -89 53 -223 53 l-125 0 0 -410z m282 375 c61
-45 78 -155 35 -229 -31 -55 -84 -80 -179 -84 l-78 -4 0 172 0 172 98 -4 c78
-2 102 -7 124 -23z m-29 -336 c52 -14 122 -84 136 -134 33 -122 -10 -244 -103
-286 -30 -14 -65 -19 -133 -19 l-93 0 0 225 0 225 78 0 c42 0 94 -5 115 -11z"/>
<path d="M2280 7085 c0 -397 3 -605 10 -605 7 0 10 208 10 605 0 397 -3 605
-10 605 -7 0 -10 -208 -10 -605z"/>
<path d="M4810 7085 c0 -397 3 -605 10 -605 7 0 10 208 10 605 0 397 -3 605
-10 605 -7 0 -10 -208 -10 -605z"/>
<path d="M7340 7085 c0 -397 3 -605 10 -605 7 0 10 208 10 605 0 397 -3 605
-10 605 -7 0 -10 -208 -10 -605z"/>
<path d="M9860 7085 c0 -531 2 -605 15 -605 13 0 15 74 15 605 0 531 -2 605
-15 605 -13 0 -15 -74 -15 -605z"/>
<path d="M12390 7084 c0 -480 3 -605 13 -602 9 4 13 129 15 574 3 560 1 634
-18 634 -6 0 -10 -228 -10 -606z"/>
<path d="M14920 7085 c0 -397 3 -605 10 -605 7 0 10 208 10 605 0 397 -3 605
-10 605 -7 0 -10 -208 -10 -605z"/>
<path d="M17450 7085 c0 -397 3 -605 10 -605 7 0 10 208 10 605 0 397 -3 605
-10 605 -7 0 -10 -208 -10 -605z"/>
<path d="M1792 7378 c-11 -40 -60 -217 -110 -393 -106 -375 -108 -383 -94
-370 5 6 27 73 47 150 21 77 46 172 56 210 32 119 28 115 113 115 41 0 78 -5
81 -10 4 -6 35 -109 70 -230 35 -121 66 -224 70 -230 3 -5 19 -10 35 -10 l29
0 -24 73 c-20 62 -217 699 -231 750 -10 33 -22 17 -42 -55z m47 -133 c18 -60
34 -118 37 -127 5 -16 -3 -18 -70 -18 -42 0 -76 2 -76 5 0 6 58 221 66 244 7
21 9 15 43 -104z"/>
<path d="M4336 7433 c-37 -123 -226 -801 -226 -812 0 -33 18 8 39 89 12 47 40
152 63 233 l41 148 80 -3 81 -3 61 -210 c34 -115 65 -222 69 -237 5 -23 12
-28 36 -28 17 0 30 3 30 8 0 4 -40 135 -88 292 -49 157 -106 342 -128 413 -21
70 -42 127 -46 127 -3 0 -9 -8 -12 -17z m34 -195 c18 -62 35 -119 38 -125 3
-10 -15 -13 -72 -13 -43 0 -76 4 -76 10 0 22 64 240 70 240 4 0 22 -51 40
-112z"/>
<path d="M6866 7439 c-3 -8 -46 -160 -96 -339 -50 -179 -102 -360 -115 -403
-12 -42 -19 -80 -14 -82 4 -3 13 14 19 37 13 47 82 301 106 386 l15 52 79 0
79 0 30 -97 c16 -54 39 -131 50 -170 65 -227 59 -213 91 -213 17 0 30 2 30 6
0 3 -30 100 -66 217 -36 117 -83 268 -104 337 -87 285 -93 301 -104 269z m32
-202 c18 -63 32 -119 32 -125 0 -8 -23 -12 -70 -12 -49 0 -70 4 -70 13 0 24
62 237 69 237 4 0 22 -51 39 -113z"/>
<path d="M9397 7443 c-2 -4 -53 -179 -111 -388 -59 -209 -112 -393 -117 -409
-8 -26 -5 -46 5 -35 2 2 33 110 68 239 l64 235 81 3 81 3 10 -33 c13 -43 33
-112 86 -293 l43 -150 33 -3 c24 -3 31 0 28 10 -7 17 -147 469 -205 663 -45
148 -56 175 -66 158z m29 -205 c18 -62 34 -119 34 -125 0 -9 -21 -13 -70 -13
-58 0 -70 3 -70 16 0 24 62 245 67 240 2 -2 20 -55 39 -118z"/>
<path d="M11910 7403 c-6 -27 -59 -214 -116 -417 -58 -203 -103 -371 -100
-374 8 -7 10 -1 79 248 l62 225 81 3 81 3 69 -238 70 -238 32 -3 c36 -4 36 -4
21 35 -9 23 -186 592 -235 756 -8 26 -19 47 -23 47 -5 0 -14 -21 -21 -47z m45
-169 c19 -65 35 -122 35 -126 0 -5 -34 -8 -76 -8 -67 0 -75 2 -70 18 3 9 17
60 31 112 35 129 36 132 41 127 2 -2 20 -57 39 -123z"/>
<path d="M14427 7358 c-15 -51 -67 -237 -117 -413 -49 -176 -90 -324 -90 -329
0 -37 25 36 69 204 29 107 58 211 64 230 l13 35 73 3 c41 2 78 -1 83 -6 4 -4
37 -108 72 -230 36 -122 67 -226 71 -232 3 -5 19 -10 35 -10 l29 0 -24 73
c-20 62 -217 699 -231 750 -10 34 -22 16 -47 -75z m52 -113 c18 -60 34 -118
37 -127 5 -16 -3 -18 -70 -18 -42 0 -76 2 -76 5 0 6 58 221 66 244 7 21 9 15
43 -104z"/>
<path d="M16980 7446 c0 -2 -13 -48 -29 -102 -92 -314 -202 -716 -198 -727 3
-8 6 -7 10 3 7 20 127 459 127 466 0 3 37 4 82 2 l82 -3 61 -210 c34 -115 65
-222 69 -237 5 -23 12 -28 36 -28 17 0 30 3 30 8 0 21 -255 832 -262 832 -4 0
-8 -2 -8 -4z m28 -204 c44 -149 46 -142 -38 -142 -38 0 -70 3 -70 8 -1 18 64
242 70 242 4 0 21 -48 38 -108z"/>
<path d="M10 7025 l0 -417 148 4 c126 3 153 7 188 25 83 44 124 116 124 218
-1 98 -62 178 -164 211 l-49 17 38 18 c80 39 115 90 115 167 0 65 -30 110 -95
142 -43 21 -67 25 -177 28 l-128 4 0 -417z m281 372 c44 -29 63 -70 63 -132 0
-99 -56 -164 -148 -173 -38 -4 -46 -7 -31 -13 11 -4 34 -8 50 -8 44 -2 129
-54 155 -97 27 -43 38 -149 21 -211 -27 -100 -99 -142 -238 -143 l-93 0 0 400
0 400 94 0 c80 0 98 -3 127 -23z"/>
<path d="M2540 7025 l0 -417 148 4 c127 3 153 7 189 26 180 94 158 358 -36
426 l-54 19 45 23 c82 41 118 108 105 190 -8 50 -40 89 -95 115 -40 20 -67 24
-174 27 l-128 4 0 -417z m277 375 c44 -26 66 -73 65 -137 -1 -99 -69 -172
-163 -174 l-44 -1 40 -9 c95 -23 117 -32 152 -62 47 -42 73 -99 73 -166 0 -75
-18 -128 -60 -172 -43 -45 -89 -59 -197 -59 l-83 0 0 400 0 400 93 0 c74 0 98
-4 124 -20z"/>
<path d="M5070 7025 l0 -417 148 4 c117 3 154 8 182 22 78 41 119 104 127 197
10 111 -63 208 -181 240 l-39 11 44 19 c55 25 76 44 100 91 42 82 8 177 -78
219 -40 19 -69 23 -175 27 l-128 4 0 -417z m275 375 c47 -29 68 -80 63 -151
-7 -97 -69 -158 -162 -160 l-51 -1 67 -14 c37 -7 80 -20 96 -28 43 -22 90 -80
103 -128 22 -84 -5 -203 -59 -251 -35 -32 -93 -46 -184 -47 l-88 0 0 400 0
400 91 0 c74 0 98 -4 124 -20z"/>
<path d="M7600 7024 l0 -416 143 4 c125 3 148 6 190 27 118 58 161 226 86 335
-28 41 -89 83 -144 97 l-39 11 32 14 c130 54 170 181 86 273 -45 51 -117 71
-252 71 l-102 0 0 -416z m285 366 c60 -56 73 -143 32 -214 -33 -58 -65 -77
-141 -85 -85 -9 -90 -16 -13 -18 71 -2 108 -14 155 -49 130 -100 93 -351 -59
-393 -24 -7 -80 -11 -124 -9 l-80 3 -2 398 -3 399 104 -4 c95 -3 107 -5 131
-28z"/>
<path d="M10125 7429 c-3 -8 -4 -194 -3 -414 l3 -400 145 0 c130 1 149 3 187
23 83 44 124 111 125 206 0 73 -10 102 -53 150 -33 39 -83 68 -134 80 l-30 8
53 25 c72 34 102 80 102 154 0 72 -27 115 -95 149 -43 22 -66 25 -172 29 -97
2 -124 0 -128 -10z m300 -51 c39 -42 52 -103 36 -165 -21 -78 -79 -122 -163
-124 -36 -1 -39 -2 -18 -9 14 -4 39 -9 55 -9 52 -2 117 -43 153 -95 29 -44 32
-55 32 -128 0 -90 -19 -138 -70 -181 -43 -37 -92 -49 -185 -45 l-80 3 -2 398
-3 399 106 -4 106 -3 33 -37z"/>
<path d="M12650 7025 l0 -417 148 4 c125 3 153 7 187 25 84 44 125 114 125
210 -1 106 -59 184 -164 219 l-49 17 38 18 c80 39 115 90 115 167 0 65 -30
109 -95 142 -44 22 -66 25 -177 29 l-128 3 0 -417z m281 372 c44 -29 63 -70
63 -132 0 -101 -54 -163 -153 -175 l-56 -6 50 -7 c73 -11 149 -52 181 -98 20
-30 28 -54 31 -106 7 -90 -10 -148 -56 -194 -45 -45 -91 -59 -198 -59 l-83 0
0 400 1 400 93 0 c80 0 98 -3 127 -23z"/>
<path d="M15180 7025 l0 -417 148 4 c127 3 153 7 189 26 180 94 158 358 -36
426 l-54 19 45 23 c82 41 118 108 105 190 -8 50 -40 89 -95 115 -40 20 -67 24
-174 27 l-128 4 0 -417z m277 375 c44 -26 66 -73 65 -137 -1 -99 -69 -172
-163 -174 l-44 -1 40 -9 c95 -23 117 -32 152 -62 47 -42 73 -99 73 -166 0 -75
-18 -128 -60 -172 -43 -45 -89 -59 -197 -59 l-83 0 0 400 0 400 93 0 c74 0 98
-4 124 -20z"/>
<path d="M17710 7025 l0 -417 148 4 c117 3 154 8 182 22 87 45 124 109 125
212 0 61 -4 77 -30 120 -25 40 -43 55 -103 85 l-72 37 30 12 c47 19 79 48 100
91 43 83 9 178 -77 220 -41 20 -68 24 -175 27 l-128 4 0 -417z m275 375 c47
-29 68 -80 63 -151 -7 -97 -69 -158 -162 -160 l-51 -1 67 -14 c37 -7 80 -20
96 -28 43 -22 90 -80 103 -128 22 -84 -5 -203 -59 -251 -35 -32 -93 -46 -184
-47 l-88 0 0 400 0 400 91 0 c74 0 98 -4 124 -20z"/>
<path d="M797 5163 c-12 -11 -8 -1213 3 -1213 7 0 10 210 10 610 0 336 -1 610
-3 610 -2 0 -7 -3 -10 -7z"/>
<path d="M3327 5163 c-12 -11 -8 -1213 3 -1213 7 0 10 210 10 610 0 336 -1
610 -3 610 -2 0 -7 -3 -10 -7z"/>
<path d="M8380 4561 c0 -401 3 -611 10 -611 7 0 10 208 10 604 0 393 -4 607
-10 611 -7 4 -10 -200 -10 -604z"/>
<path d="M10906 5163 c-3 -3 -6 -278 -6 -610 0 -529 2 -603 15 -603 13 0 15
74 15 604 0 333 -4 607 -9 610 -4 3 -11 3 -15 -1z"/>
<path d="M13437 5163 c-12 -11 -8 -1213 3 -1213 7 0 10 210 10 610 0 336 -1
610 -3 610 -2 0 -7 -3 -10 -7z"/>
<path d="M18490 4560 c0 -400 3 -610 10 -610 7 0 10 210 10 610 0 400 -3 610
-10 610 -7 0 -10 -210 -10 -610z"/>
<path d="M5850 4555 c0 -397 3 -605 10 -605 7 0 10 208 10 605 0 397 -3 605
-10 605 -7 0 -10 -208 -10 -605z"/>
<path d="M15960 4555 c0 -397 3 -605 10 -605 7 0 10 208 10 605 0 397 -3 605
-10 605 -7 0 -10 -208 -10 -605z"/>
<path d="M5376 4914 c-3 -11 -48 -172 -100 -359 -52 -187 -102 -362 -111 -390
-15 -49 -20 -93 -10 -83 3 3 28 88 56 189 27 101 56 208 65 237 l15 53 81 -3
82 -3 63 -220 c35 -121 67 -227 72 -235 9 -16 61 -27 61 -12 0 4 -20 71 -44
148 -24 76 -81 261 -126 409 -46 149 -87 274 -91 279 -4 4 -10 0 -13 -10z m37
-216 c19 -64 32 -119 29 -122 -11 -12 -142 -6 -142 5 0 29 64 249 71 242 4 -4
23 -61 42 -125z"/>
<path d="M18017 4914 c-3 -11 -38 -134 -77 -274 -40 -140 -89 -317 -111 -392
-36 -127 -47 -179 -34 -166 3 3 32 103 65 224 34 120 63 227 66 237 5 15 16
17 87 15 l81 -3 63 -220 c35 -121 67 -227 72 -235 8 -16 61 -27 61 -13 0 4
-34 118 -76 253 -42 135 -98 319 -126 410 -27 91 -54 169 -58 174 -4 4 -10 0
-13 -10z m31 -202 c44 -149 46 -142 -38 -142 -49 0 -70 4 -70 13 0 24 62 237
70 237 4 0 21 -48 38 -108z"/>
<path d="M272 4738 c-200 -708 -191 -671 -173 -653 5 6 34 105 65 220 31 116
61 220 66 233 9 20 16 22 88 22 l78 0 70 -237 70 -238 30 0 c21 0 28 4 25 15
-3 13 -110 363 -221 718 -17 56 -35 102 -39 102 -4 0 -31 -82 -59 -182z m83
-34 c19 -65 35 -122 35 -126 0 -10 -137 -10 -144 0 -4 6 39 180 60 241 7 22
12 11 49 -115z"/>
<path d="M2846 4903 c-3 -10 -35 -124 -71 -253 -36 -129 -86 -306 -111 -393
-25 -86 -44 -163 -41 -170 3 -9 6 -8 10 3 7 19 127 459 127 465 0 3 37 5 83 5
l83 0 63 -222 c35 -123 68 -231 73 -240 9 -19 58 -25 58 -8 0 6 -56 193 -125
416 -69 222 -125 407 -125 409 0 13 -19 3 -24 -12z m39 -208 c18 -60 30 -113
28 -117 -6 -12 -143 -10 -143 2 0 14 61 233 68 245 7 11 6 12 47 -130z"/>
<path d="M7907 4913 c-2 -4 -39 -132 -82 -283 -42 -151 -94 -333 -115 -405
-20 -71 -35 -134 -32 -140 7 -12 4 -21 77 245 l61 225 82 3 81 3 19 -63 c11
-35 41 -137 67 -228 26 -91 52 -171 58 -177 10 -14 57 -18 57 -6 0 5 -13 48
-29 98 -16 49 -48 149 -70 220 -161 527 -162 529 -174 508z m32 -208 c17 -61
31 -116 31 -123 0 -8 -22 -12 -70 -12 -58 0 -70 3 -70 16 0 33 63 245 70 237
5 -4 22 -58 39 -118z"/>
<path d="M10381 4727 c-30 -105 -82 -291 -117 -412 -55 -195 -65 -240 -50
-224 3 3 33 108 68 234 l63 230 82 3 82 3 17 -58 c114 -394 122 -418 138 -421
48 -10 46 -2 -84 419 -70 227 -132 415 -136 416 -5 2 -33 -84 -63 -190z m84
-18 c19 -63 35 -120 35 -126 0 -9 -20 -13 -68 -13 -38 0 -71 3 -74 6 -3 3 5
44 18 92 13 48 29 104 35 126 6 21 13 36 15 33 3 -3 21 -56 39 -118z"/>
<path d="M12927 4793 c-20 -71 -72 -256 -116 -413 -45 -156 -81 -289 -81 -294
0 -38 26 38 74 219 31 116 61 220 66 233 9 20 16 22 88 22 l78 0 70 -237 69
-238 34 -3 c29 -3 33 -1 26 15 -4 10 -47 149 -97 308 -152 492 -159 515 -167
515 -5 0 -24 -57 -44 -127z m68 -88 c19 -65 32 -122 29 -126 -7 -11 -131 -12
-138 -1 -4 6 39 180 60 241 7 22 12 11 49 -114z"/>
<path d="M15490 4915 c0 -2 -24 -89 -54 -192 -125 -434 -177 -626 -173 -637 3
-7 7 -5 10 4 7 19 127 459 127 465 0 3 37 5 83 5 l83 0 64 -222 c35 -123 67
-231 72 -240 9 -19 58 -25 58 -7 0 5 -39 135 -86 287 -90 290 -164 533 -164
539 0 2 -4 3 -10 3 -5 0 -10 -2 -10 -5z m35 -220 c18 -60 30 -113 28 -117 -6
-12 -143 -10 -143 2 0 14 61 233 68 245 7 11 6 12 47 -130z"/>
<path d="M1050 4495 l0 -417 143 4 c165 5 209 19 261 79 79 93 74 242 -11 322
-17 15 -56 38 -87 51 l-56 23 40 18 c80 36 120 109 106 193 -7 49 -33 82 -87
112 -39 22 -58 25 -176 28 l-133 4 0 -417z m288 368 c87 -71 73 -212 -27 -280
-29 -19 -47 -23 -117 -23 l-84 0 0 171 0 172 95 -5 c88 -5 99 -8 133 -35z m-2
-344 c72 -37 105 -90 112 -177 5 -78 -8 -130 -46 -181 -36 -48 -76 -61 -192
-61 l-100 0 0 226 0 226 89 -4 c69 -3 99 -9 137 -29z"/>
<path d="M3580 4496 l0 -416 118 0 c134 1 187 10 242 45 78 49 117 164 89 262
-17 63 -79 125 -147 147 -46 16 -62 36 -29 36 26 0 88 53 108 92 43 84 8 181
-80 221 -37 17 -71 22 -173 25 l-128 4 0 -416z m268 380 c54 -28 74 -70 70
-148 -4 -72 -20 -103 -72 -142 -22 -17 -46 -22 -117 -24 l-89 -4 0 172 0 172
88 -4 c56 -3 99 -11 120 -22z m8 -354 c51 -26 98 -79 114 -128 19 -57 8 -154
-24 -209 -40 -68 -82 -85 -206 -85 l-100 0 0 226 0 226 88 -4 c62 -3 98 -10
128 -26z"/>
<path d="M6110 4495 l0 -418 143 5 c133 4 145 6 194 32 113 62 153 198 94 315
-26 49 -72 86 -140 109 l-53 18 52 23 c136 62 145 235 15 301 -44 22 -64 25
-177 29 l-128 3 0 -417z m270 380 c94 -56 93 -219 -2 -287 -28 -19 -48 -24
-125 -26 l-93 -4 0 164 c0 91 3 168 8 172 4 5 46 6 93 4 61 -3 95 -10 119 -23z
m6 -353 c106 -55 147 -163 109 -288 -32 -104 -82 -134 -225 -134 l-100 0 0
226 0 226 88 -4 c62 -3 98 -10 128 -26z"/>
<path d="M8639 4906 c-2 -2 -3 -190 -1 -416 l2 -412 138 4 c183 6 243 33 294
132 31 60 28 161 -5 219 -29 49 -83 89 -146 108 l-43 13 44 22 c88 45 127 116
108 198 -12 53 -63 103 -124 121 -45 14 -256 22 -267 11z m274 -35 c95 -59 84
-231 -18 -288 -32 -18 -56 -23 -122 -23 l-83 0 0 163 c0 90 3 167 8 171 4 5
46 6 94 3 65 -3 95 -10 121 -26z m-39 -335 c107 -32 159 -105 159 -222 -1 -74
-16 -118 -57 -162 -39 -44 -69 -52 -181 -52 l-105 0 0 218 c0 120 3 222 7 225
12 12 129 7 177 -7z"/>
<path d="M11162 4498 l3 -413 135 0 c151 0 192 10 247 58 63 55 87 145 67 246
-10 49 -80 118 -147 145 l-58 23 32 13 c76 32 119 91 119 165 0 56 -19 96 -63
129 -44 34 -102 45 -230 46 l-107 0 2 -412z m276 375 c52 -39 67 -70 66 -137
-1 -122 -64 -176 -204 -176 l-80 0 0 163 c0 90 3 167 8 171 4 5 47 6 96 3 66
-3 95 -9 114 -24z m-34 -337 c106 -32 155 -102 156 -219 0 -73 -17 -127 -53
-165 -40 -44 -70 -52 -182 -52 l-105 0 0 225 0 225 68 0 c38 0 90 -6 116 -14z"/>
<path d="M13690 4495 l0 -417 143 4 c165 5 209 19 261 79 79 93 74 242 -11
322 -17 15 -56 38 -87 51 l-56 23 39 18 c74 33 111 89 111 169 0 56 -32 103
-90 136 -40 22 -59 25 -177 28 l-133 4 0 -417z m223 398 c109 -17 159 -167 89
-262 -41 -55 -78 -71 -168 -71 l-84 0 0 163 c0 90 3 167 7 170 8 9 106 9 156
0z m24 -358 c63 -19 128 -79 142 -132 24 -86 10 -179 -37 -242 -36 -48 -75
-61 -192 -61 l-100 0 0 225 0 225 68 0 c38 0 91 -7 119 -15z"/>
<path d="M16220 4496 l0 -416 109 0 c188 0 265 28 316 114 77 131 18 294 -123
340 -46 16 -62 36 -29 36 26 0 88 52 107 90 43 85 12 177 -75 220 -44 22 -66
25 -177 29 l-128 3 0 -416z m268 380 c54 -28 74 -70 70 -148 -6 -113 -64 -167
-182 -169 l-71 -2 75 -7 c94 -10 137 -28 182 -78 46 -51 62 -100 56 -176 -6
-74 -36 -136 -80 -168 -29 -20 -47 -23 -145 -26 l-113 -4 0 402 0 402 88 -4
c56 -3 99 -11 120 -22z"/>
<path d="M18750 4495 l0 -417 143 4 c131 4 146 6 195 31 37 20 62 42 82 74 27
42 30 56 30 125 0 123 -44 187 -154 224 -25 9 -46 18 -46 20 0 2 21 14 46 25
130 62 136 234 9 299 -44 22 -64 25 -177 29 l-128 3 0 -417z m270 380 c94 -56
93 -219 -2 -287 -29 -20 -45 -23 -123 -23 l-90 0 -3 145 c-4 205 -10 193 97
188 63 -3 97 -9 121 -23z m-29 -341 c96 -29 159 -113 159 -215 0 -46 -25 -128
-49 -156 -43 -51 -79 -63 -188 -63 l-103 0 0 225 0 225 63 0 c35 0 88 -7 118
-16z"/>
<path d="M1830 2030 c0 -400 3 -610 10 -610 7 0 10 210 10 610 0 400 -3 610
-10 610 -7 0 -10 -210 -10 -610z"/>
<path d="M4360 2030 c0 -400 3 -610 10 -610 7 0 10 210 10 610 0 400 -3 610
-10 610 -7 0 -10 -210 -10 -610z"/>
<path d="M6890 2030 c0 -400 3 -610 10 -610 7 0 10 210 10 610 0 400 -3 610
-10 610 -7 0 -10 -210 -10 -610z"/>
<path d="M9416 2633 c-3 -3 -6 -278 -6 -610 0 -529 2 -603 15 -603 13 0 15 74
15 604 0 333 -4 607 -9 610 -4 3 -11 3 -15 -1z"/>
<path d="M11947 2633 c-12 -11 -8 -1215 3 -1211 10 3 17 1204 7 1214 -2 2 -7
1 -10 -3z"/>
<path d="M14470 2030 c0 -400 3 -610 10 -610 7 0 10 210 10 610 0 400 -3 610
-10 610 -7 0 -10 -210 -10 -610z"/>
<path d="M17000 2030 c0 -400 3 -610 10 -610 7 0 10 210 10 610 0 400 -3 610
-10 610 -7 0 -10 -210 -10 -610z"/>
<path d="M3888 2383 c-3 -10 -29 -101 -57 -203 -29 -102 -79 -279 -112 -394
-33 -115 -58 -214 -56 -220 6 -15 9 -6 67 209 28 105 56 205 61 223 l11 32 81
0 82 0 48 -167 c93 -323 85 -303 118 -303 16 0 29 2 29 5 0 3 -21 72 -46 153
-25 81 -82 264 -126 407 -44 143 -83 264 -88 268 -4 5 -10 0 -12 -10z m34
-205 c19 -68 33 -126 31 -130 -7 -14 -143 -9 -143 5 0 6 9 44 20 82 11 39 25
91 32 118 6 26 15 47 18 47 4 0 23 -55 42 -122z"/>
<path d="M6401 2333 c-90 -313 -217 -769 -214 -772 8 -10 18 21 77 236 l63
228 83 0 84 0 10 -35 c5 -19 35 -123 67 -230 l57 -195 32 -3 c29 -3 31 -2 24
20 -4 13 -20 64 -35 113 -15 50 -66 216 -114 370 -48 154 -90 290 -92 303 -10
43 -22 32 -42 -35z m49 -157 c17 -59 29 -115 26 -122 -8 -20 -124 -20 -132 0
-3 8 3 45 14 83 11 37 25 90 32 116 7 26 16 44 21 40 4 -4 21 -57 39 -117z"/>
<path d="M8946 2390 c-3 -8 -42 -145 -86 -305 -45 -159 -97 -342 -115 -405
-30 -100 -36 -134 -21 -119 3 3 33 108 68 234 l63 230 82 3 82 3 22 -73 c12
-40 43 -145 68 -233 l47 -160 33 -3 c29 -3 33 -1 27 15 -11 27 -154 486 -218
698 -36 118 -44 137 -52 115z m33 -218 c17 -62 29 -117 26 -123 -4 -5 -35 -9
-71 -9 -54 0 -64 3 -64 18 -1 32 63 243 71 235 4 -4 21 -59 38 -121z"/>
<path d="M11471 2378 c-5 -14 -15 -45 -21 -69 -12 -43 -196 -697 -206 -731 -3
-10 -1 -18 4 -18 5 0 37 106 72 235 l63 235 83 0 82 0 20 -67 c11 -38 42 -143
69 -235 l48 -168 31 0 32 0 -25 78 c-13 42 -72 230 -129 417 -58 186 -107 341
-109 344 -3 2 -9 -8 -14 -21z m35 -203 c19 -64 32 -120 29 -126 -7 -10 -128
-13 -137 -3 -6 5 7 57 48 203 8 29 17 51 20 48 3 -3 21 -57 40 -122z"/>
<path d="M16528 2383 c-3 -10 -29 -101 -57 -203 -29 -102 -79 -279 -112 -394
-33 -115 -58 -214 -56 -220 6 -15 9 -6 62 189 25 94 53 194 61 223 l15 52 82
0 82 0 48 -167 c93 -323 85 -303 118 -303 16 0 29 3 29 7 0 5 -11 42 -24 83
-14 41 -43 134 -65 205 -120 393 -164 531 -171 538 -4 5 -10 0 -12 -10z m34
-205 c19 -68 33 -126 31 -130 -6 -11 -131 -10 -137 1 -7 11 56 251 65 251 4 0
22 -55 41 -122z"/>
<path d="M19041 2333 c-83 -286 -217 -769 -214 -772 8 -11 19 22 77 236 l63
228 83 0 84 0 31 -109 30 -109 3 86 c3 81 -1 98 -54 269 -31 101 -59 193 -61
206 -10 43 -22 32 -42 -35z m48 -154 c17 -59 31 -114 31 -123 0 -13 -12 -16
-65 -16 -47 0 -67 4 -71 14 -3 8 3 45 14 83 11 37 25 90 32 116 7 26 16 44 21
40 4 -4 21 -56 38 -114z"/>
<path d="M1360 2386 c0 -4 -29 -107 -171 -604 -33 -118 -58 -216 -55 -219 3
-4 7 -4 9 -2 2 2 30 101 62 219 32 118 60 223 63 233 4 14 17 17 86 17 l82 0
69 -235 68 -235 32 0 33 0 -13 38 c-7 20 -61 192 -119 382 -59 190 -112 360
-117 378 -6 17 -15 32 -20 32 -5 0 -9 -2 -9 -4z m34 -210 c19 -66 33 -123 30
-128 -7 -12 -132 -10 -139 2 -4 6 0 32 8 58 8 26 23 76 33 112 18 69 24 83 29
78 2 -2 19 -57 39 -122z"/>
<path d="M13972 2283 c-170 -592 -212 -753 -189 -722 2 2 14 42 26 89 12 47
41 151 63 233 l41 147 81 0 82 0 69 -235 69 -235 32 0 32 0 -13 38 c-7 20 -61
192 -119 382 -59 190 -112 360 -117 378 -6 17 -14 32 -18 32 -5 0 -22 -48 -39
-107z m90 -213 c3 -24 1 -25 -61 -28 -35 -2 -68 1 -74 7 -6 6 -4 27 6 58 8 26
23 77 33 113 9 36 20 69 23 75 6 11 69 -184 73 -225z"/>
<path d="M2092 1968 l3 -413 136 0 c130 1 138 2 195 30 78 39 116 99 122 190
7 110 -54 199 -164 235 l-48 16 54 30 c110 59 134 181 52 267 -39 41 -107 57
-239 57 l-113 0 2 -412z m257 384 c69 -35 98 -109 77 -193 -24 -91 -83 -129
-201 -129 l-75 0 0 170 0 170 83 0 c58 0 92 -5 116 -18z m26 -363 c30 -15 62
-42 80 -68 28 -40 30 -49 30 -129 0 -77 -3 -92 -28 -135 -41 -70 -82 -87 -207
-87 l-100 0 0 226 0 226 88 -4 c70 -2 98 -8 137 -29z"/>
<path d="M4622 1968 l3 -413 137 1 c126 1 140 3 190 27 107 52 153 170 113
289 -20 58 -68 103 -139 132 l-57 23 54 31 c89 50 119 139 77 222 -39 77 -101
100 -268 100 l-112 0 2 -412z m258 384 c111 -55 107 -235 -5 -299 -32 -18 -56
-23 -117 -23 l-78 0 0 170 0 170 83 0 c58 0 92 -5 117 -18z m-12 -346 c62 -22
99 -55 127 -110 57 -114 12 -268 -92 -312 -20 -9 -69 -14 -128 -14 l-95 0 0
225 0 225 74 0 c40 0 92 -6 114 -14z"/>
<path d="M7152 1968 l3 -413 130 0 c145 1 188 11 241 58 54 46 77 101 78 177
1 108 -50 178 -160 220 l-48 18 40 20 c60 30 101 83 109 136 10 66 -24 132
-85 166 -40 22 -58 25 -178 28 l-132 4 2 -414z m262 379 c75 -43 98 -140 54
-227 -35 -68 -82 -91 -183 -88 l-80 3 -3 155 c-1 85 0 160 2 167 4 9 30 13 88
13 67 0 90 -5 122 -23z m-29 -338 c50 -13 118 -66 142 -113 26 -47 23 -169 -5
-222 -26 -52 -73 -91 -115 -99 -18 -3 -70 -5 -117 -3 l-85 3 -3 210 c-1 115 0
215 2 222 7 16 119 17 181 2z"/>
<path d="M9672 1969 l3 -414 95 -3 c134 -4 221 12 273 52 56 42 88 107 89 184
2 110 -52 182 -163 221 l-53 19 39 17 c78 32 115 85 115 166 0 65 -24 107 -82
139 -39 22 -57 25 -181 28 l-137 4 2 -413z m269 380 c75 -38 101 -156 53 -237
-32 -56 -79 -77 -176 -80 l-88 -4 0 171 0 171 85 0 c67 0 95 -5 126 -21z m14
-356 c82 -43 115 -102 115 -205 0 -89 -23 -144 -76 -184 -35 -27 -44 -29 -151
-32 l-113 -4 0 227 0 227 93 -4 c67 -3 103 -10 132 -25z"/>
<path d="M12202 1968 l3 -413 136 0 c130 1 138 2 195 30 78 40 114 90 121 173
8 91 -10 144 -67 195 -26 24 -69 50 -96 58 l-49 16 46 21 c66 29 102 79 107
150 3 47 0 63 -20 91 -51 75 -97 90 -266 91 l-112 0 2 -412z m257 387 c96 -49
117 -179 44 -266 -37 -44 -80 -59 -168 -59 l-75 0 0 170 0 170 85 0 c56 0 96
-5 114 -15z m-8 -350 c110 -39 154 -110 147 -237 -4 -67 -9 -85 -34 -120 -46
-64 -81 -78 -201 -78 l-103 0 0 225 0 225 74 0 c40 0 93 -7 117 -15z"/>
<path d="M14732 1968 l3 -413 137 1 c130 1 139 2 195 30 77 38 115 98 121 189
7 110 -54 199 -164 235 l-48 16 54 30 c149 80 128 269 -35 313 -22 6 -91 11
-153 11 l-112 0 2 -412z m251 388 c71 -30 104 -102 86 -187 -21 -96 -83 -139
-204 -139 l-75 0 0 170 0 170 80 0 c46 0 95 -6 113 -14z m32 -367 c30 -15 62
-42 80 -68 28 -40 30 -49 30 -129 0 -77 -3 -92 -28 -135 -41 -70 -82 -87 -207
-87 l-100 0 0 226 0 226 88 -4 c70 -2 98 -8 137 -29z"/>
<path d="M17262 1968 l3 -413 137 1 c126 1 140 3 190 27 107 52 153 170 113
289 -20 58 -68 103 -139 132 l-57 23 54 31 c89 50 119 139 77 222 -39 77 -101
100 -268 100 l-112 0 2 -412z m258 384 c111 -55 107 -235 -5 -299 -32 -18 -56
-23 -117 -23 l-78 0 0 170 0 170 83 0 c58 0 92 -5 117 -18z m-12 -346 c62 -22
99 -55 127 -110 57 -114 12 -268 -92 -312 -20 -9 -69 -14 -128 -14 l-95 0 0
225 0 225 74 0 c40 0 92 -6 114 -14z"/>
<path d="M2 1785 c0 -65 3 -91 8 -75 11 33 11 130 0 155 -6 13 -8 -16 -8 -80z"/>
<path d="M340 55 c0 -30 5 -55 10 -55 6 0 10 25 10 55 0 30 -4 55 -10 55 -5 0
-10 -25 -10 -55z"/>
<path d="M2870 55 c0 -30 5 -55 10 -55 6 0 10 25 10 55 0 30 -4 55 -10 55 -5
0 -10 -25 -10 -55z"/>
<path d="M5400 55 c0 -30 5 -55 10 -55 6 0 10 25 10 55 0 30 -4 55 -10 55 -5
0 -10 -25 -10 -55z"/>
<path d="M7930 55 c0 -30 5 -55 10 -55 6 0 10 25 10 55 0 30 -4 55 -10 55 -5
0 -10 -25 -10 -55z"/>
<path d="M10456 103 c-3 -3 -6 -28 -6 -55 0 -36 4 -48 15 -48 11 0 15 12 15
49 0 47 -9 68 -24 54z"/>
<path d="M12980 55 c0 -30 5 -55 10 -55 6 0 10 25 10 55 0 30 -4 55 -10 55 -5
0 -10 -25 -10 -55z"/>
<path d="M15510 55 c0 -30 5 -55 10 -55 6 0 10 25 10 55 0 30 -4 55 -10 55 -5
0 -10 -25 -10 -55z"/>
<path d="M18040 55 c0 -30 5 -55 10 -55 6 0 10 25 10 55 0 30 -4 55 -10 55 -5
0 -10 -25 -10 -55z"/>
</g>
</svg>
